<?xml version="1.0" encoding="UTF-8"?>
<svg width="200px" height="200px" viewBox="0 0 200 200" version="1.1" xmlns="http://www.w3.org/2000/svg" xmlns:xlink="http://www.w3.org/1999/xlink">
    <title>Icon-RT@2x</title>
    <g id="Icon-RT" stroke="none" stroke-width="1" fill="none" fill-rule="evenodd">
        <path d="M140,52.5 C153.116763,52.5 164.991763,57.8166186 173.587572,66.4124279 C182.183381,75.0082372 187.5,86.8832372 187.5,100 C187.5,113.116763 182.183381,124.991763 173.587572,133.587572 C164.991763,142.183381 153.116763,147.5 140,147.5 L60,147.5 C46.8832372,147.5 35.0082372,142.183381 26.4124279,133.587572 C17.8166186,124.991763 12.5,113.116763 12.5,100 C12.5,86.8832372 17.8166186,75.0082372 26.4124279,66.4124279 C35.0082372,57.8166186 46.8832372,52.5 60,52.5 L140,52.5 Z M135,72.5 L65,72.5 C57.4060847,72.5 50.5310847,75.5780423 45.5545635,80.5545635 C40.5780423,85.5310847 37.5,92.4060847 37.5,100 C37.5,107.593915 40.5780423,114.468915 45.5545635,119.445436 C50.5310847,124.421958 57.4060847,127.5 65,127.5 L135,127.5 C142.593915,127.5 149.468915,124.421958 154.445436,119.445436 C159.421958,114.468915 162.5,107.593915 162.5,100 C162.5,92.4060847 159.421958,85.5310847 154.445436,80.5545635 C149.468915,75.5780423 142.593915,72.5 135,72.5 Z" id="Combined-Shape" stroke="#000000" stroke-width="5" fill="#000000"></path>
    </g>
</svg>