<?xml version="1.0" encoding="UTF-8"?>
<svg width="50px" height="50px" viewBox="0 0 50 50" version="1.1" xmlns="http://www.w3.org/2000/svg" xmlns:xlink="http://www.w3.org/1999/xlink">
    <title>Icon-RT Copy 2@2x</title>
    <g id="Icon-RT-Copy-2" stroke="none" stroke-width="1" fill="none" fill-rule="evenodd">
        <path d="M35,15 C37.7614237,15 40.2614237,16.1192881 42.0710678,17.9289322 C43.8807119,19.7385763 45,22.2385763 45,25 C45,27.7614237 43.8807119,30.2614237 42.0710678,32.0710678 C40.2614237,33.8807119 37.7614237,35 35,35 L15,35 C12.2385763,35 9.73857625,33.8807119 7.92893219,32.0710678 C6.11928813,30.2614237 5,27.7614237 5,25 C5,22.2385763 6.11928813,19.7385763 7.92893219,17.9289322 C9.73857625,16.1192881 12.2385763,15 15,15 L35,15 Z M33.75,16.25 L16.25,16.25 C13.8337542,16.25 11.6462542,17.2293771 10.0628157,18.8128157 C8.47937711,20.3962542 7.5,22.5837542 7.5,25 C7.5,27.4162458 8.47937711,29.6037458 10.0628157,31.1871843 C11.6462542,32.7706229 13.8337542,33.75 16.25,33.75 L33.75,33.75 C36.1662458,33.75 38.3537458,32.7706229 39.9371843,31.1871843 C41.5206229,29.6037458 42.5,27.4162458 42.5,25 C42.5,22.5837542 41.5206229,20.3962542 39.9371843,18.8128157 C38.3537458,17.2293771 36.1662458,16.25 33.75,16.25 Z" id="Combined-Shape" stroke="#000000" stroke-width="5" fill="#000000"></path>
    </g>
</svg>