<?xml version="1.0" encoding="UTF-8" standalone="no"?><!DOCTYPE svg PUBLIC "-//W3C//DTD SVG 1.1//EN" "http://www.w3.org/Graphics/SVG/1.1/DTD/svg11.dtd"><svg width="100%" height="100%" viewBox="0 0 2084 1250" version="1.1" xmlns="http://www.w3.org/2000/svg" xmlns:xlink="http://www.w3.org/1999/xlink" xml:space="preserve" xmlns:serif="http://www.serif.com/" style="fill-rule:evenodd;clip-rule:evenodd;stroke-linecap:round;stroke-linejoin:round;stroke-miterlimit:1.5;"><g><path id="_1" serif:id="1" d="M410.778,689.816c20.972,39.086 57.524,68.587 101.328,80.175c-0,0 24.2,-70.357 24.088,-70.373c-25.326,-3.513 -46.488,-19.599 -58.837,-41.53l-66.579,31.728" style="stroke:#fff;stroke-width:4.17px;"/><path id="_2" serif:id="2" d="M475.056,573.844l-66.836,-31.85l-0.049,0.098c-10.588,21.525 -16.537,45.736 -16.537,71.326c0,27.62 6.93,53.634 19.144,76.398c-0,-0 66.579,-31.728 66.579,-31.728c-7.46,-13.251 -11.703,-28.635 -11.703,-44.67c-0,-14.192 3.37,-27.603 9.352,-39.476" style="stroke:#fff;stroke-width:4.17px;"/><path id="_3" serif:id="3" d="M475.003,573.943c10.19,-20.224 27.96,-35.985 49.569,-43.542l-31.266,-67.32c-37.179,14.935 -67.556,43.269 -85.138,79.012l0.048,-0.098l66.836,31.85" style="stroke:#fff;stroke-width:4.17px;"/><path id="_4" serif:id="4" d="M602.306,535.375l31.194,-67.165c-24.467,-10.759 -51.506,-16.732 -79.929,-16.732c-21.294,0 -41.634,4.119 -60.265,11.603l31.265,67.319c9.082,-3.176 18.841,-4.902 29,-4.902c17.286,-0 33.757,3.518 48.735,9.877" style="stroke:#fff;stroke-width:4.17px;"/><path id="_5" serif:id="5" d="M602.306,535.375c20.062,8.518 37.446,22.132 50.522,39.214l67.739,-32.28c-21.062,-32.445 -51.319,-58.38 -87.067,-74.099l-31.194,67.165" style="stroke:#fff;stroke-width:4.17px;"/><path id="_6" serif:id="6" d="M652.83,574.587c0.016,0.022 0.033,0.044 0.05,0.066c16.072,21.024 25.623,47.292 25.623,75.773c0,6.681 -0.525,13.239 -1.537,19.636l68.593,32.687c4.54,-16.674 6.964,-34.218 6.964,-52.323c-0,-39.852 -11.743,-76.983 -31.955,-108.119c0,-0 -53.701,25.591 -67.67,32.247" style="stroke:#fff;stroke-width:4.17px;"/><path id="_7" serif:id="7" d="M676.969,670.064c-5.264,33.285 -23.693,62.216 -49.778,81.285l31.558,67.95c41.979,-26.216 73.498,-67.647 86.813,-116.548l-68.593,-32.687" style="stroke:#fff;stroke-width:4.17px;"/><path id="_8" serif:id="8" d="M488.089,840.157c20.795,6.004 42.768,9.221 65.486,9.221c38.603,0 74.653,-11.018 105.174,-30.079l-31.558,-67.95c-20.651,15.095 -46.101,24.01 -73.616,24.01c-14.332,-0 -28.232,-1.866 -41.469,-5.368l-24.017,70.166" style="stroke:#fff;stroke-width:4.17px;"/><path id="_9" serif:id="9" d="M343.901,721.685c29.486,56.94 81.488,100.37 144.188,118.472l24.017,-70.166c-43.804,-11.588 -80.356,-41.089 -101.328,-80.175l-66.877,31.869" style="stroke:#fff;stroke-width:4.17px;"/><path id="_10" serif:id="10" d="M341.341,510.245c-16.661,33.012 -23.48,68.398 -23.335,103.088c0.163,39.015 9.099,75.918 25.895,108.352l66.877,-31.869c-12.214,-22.764 -19.144,-48.778 -19.144,-76.398c0,-25.59 5.947,-49.803 16.535,-71.328l0.048,-0.096l-66.876,-31.749Z" style="stroke:#fff;stroke-width:4.17px;"/><path id="_11" serif:id="11" d="M408.168,542.093c17.583,-35.743 47.959,-64.078 85.139,-79.012l-31.213,-67.207c-52.769,22.24 -95.772,63.107 -120.755,114.37c0.058,-0.12 -0,-0 -0,-0l66.878,31.75" style="stroke:#fff;stroke-width:4.17px;"/><path id="_12" serif:id="12" d="M664.687,401.058c-33.95,-15.166 -71.556,-23.599 -111.116,-23.599c-32.43,-0 -63.341,6.556 -91.478,18.415c-0,0 32.859,70.75 31.213,67.207c18.631,-7.484 38.971,-11.603 60.265,-11.603c28.423,0 55.462,5.973 79.929,16.732l31.187,-67.152" style="stroke:#fff;stroke-width:4.17px;"/><path id="_13" serif:id="13" d="M720.567,542.309l67.24,-32.043c-28.737,-47.889 -71.743,-86.257 -123.12,-109.208c0,0 -31.257,67.301 -31.187,67.152c35.748,15.719 66.005,41.654 87.067,74.099" style="stroke:#fff;stroke-width:4.17px;"/><path id="_14" serif:id="14" d="M745.582,702.76l67.593,32.211c8.676,-26.624 13.367,-55.041 13.367,-84.545c0,-51.229 -14.143,-99.181 -38.734,-140.162l-67.24,32.043c20.212,31.136 31.955,68.267 31.955,108.119c-0,18.091 -2.42,35.62 -6.953,52.283c-0.004,0.013 -0.007,0.027 -0.011,0.04" style="stroke:#fff;stroke-width:4.17px;"/><path id="_15" serif:id="15" d="M658.749,819.299l31.353,67.508c57.707,-33.426 102.071,-87.376 123.076,-151.834l-67.617,-32.222c-13.314,48.901 -44.833,90.332 -86.812,116.548" style="stroke:#fff;stroke-width:4.17px;"/><path id="_16" serif:id="16" d="M464.092,910.264c28.336,8.542 58.378,13.134 89.483,13.134c49.722,-0 96.357,-13.323 136.527,-36.591l-31.353,-67.508c-30.521,19.061 -66.571,30.079 -105.174,30.079c-22.718,0 -44.691,-3.217 -65.486,-9.221c-0,-0 -23.997,70.107 -23.997,70.107" style="stroke:#fff;stroke-width:4.17px;"/><path id="_17" serif:id="17" d="M276.949,753.35c0,-0 -8.853,4.069 -8.82,4.134c38.002,74.782 114.373,128.186 195.963,152.78l23.997,-70.107c-62.7,-18.102 -114.702,-61.532 -144.188,-118.472l-66.854,31.859" style="stroke:#fff;stroke-width:4.17px;"/><path id="_18" serif:id="18" d="M243.596,624.744c-0.001,0.007 -0.001,0.014 -0,0.021c1.666,46.21 6.872,85.344 24.533,132.719c-0,-0 -0,-0 -0,-0l75.772,-35.799c-15.498,-29.927 -24.776,-63.587 -26.117,-99.258c1.178,-63.551 8.57,-76.467 23.557,-112.182l-67.599,-32.214c0,0 0,0 0,0c-19.238,45.189 -30.144,94.75 -30.146,146.713Zm100.305,96.941c-0,0 0,0.001 0,0.001l-0,-0.001Z" style="stroke:#fff;stroke-width:4.17px;"/><path id="_19" serif:id="19" d="M273.742,478.031l67.597,32.213c23.179,-55.241 61.897,-104.109 109.279,-138.973l-31.675,-68.2c-62.669,41.857 -114.506,102.86 -145.201,174.96Z" style="stroke:#fff;stroke-width:4.17px;"/><path id="_20" serif:id="20" d="M529.877,268.1c-11.759,-3.243 -22.26,-8.267 -22.26,-8.267c-30.868,10.345 -61.084,24.81 -88.674,43.238l31.675,68.2c46.445,-34.175 101.257,-54.873 158.036,-54.873l34.251,-0c0,-0 -27.786,-24.786 -113.028,-48.298Z" style="stroke:#fff;stroke-width:4.17px;"/><path id="_21" serif:id="21" d="M922.593,242.249c-3.133,3.951 -6.779,7.477 -11.006,10.469c-41.339,29.264 -72.593,61.797 -76.465,63.68l-192.217,-0c0,-0 -27.815,-24.681 -113.028,-48.298c-8.3,-2.3 -15.343,-4.955 -22.26,-8.267c0,0 50.843,-17.584 103.346,-17.584l311.63,0Z" style="stroke:#fff;stroke-width:4.17px;"/><path id="_22" serif:id="22" d="M922.632,242.249l86.122,0l-0,74.149l-173.593,-0c3.872,-1.883 35.126,-34.416 76.465,-63.68c4.227,-2.992 7.873,-6.518 11.006,-10.469Z" style="stroke:#fff;stroke-width:4.17px;"/><path id="_23" serif:id="23" d="M1182.55,242.041l-173.797,0.208l-0,74.149l173.797,-0.208l0,-74.149Z" style="stroke:#fff;stroke-width:4.17px;"/><rect id="_24" serif:id="24" x="1182.55" y="242.041" width="175.961" height="74.148" style="stroke:#fff;stroke-width:4.17px;"/><path id="_25" serif:id="25" d="M1358.51,242.041l0,74.149l149.116,-0c33.765,-0 66.97,6.323 98.557,17.85l-0,-0l24.411,-71.318c-39.282,-13.421 -80.825,-20.681 -123.371,-20.681l-148.713,0Z" style="stroke:#fff;stroke-width:4.17px;"/><path id="_26" serif:id="26" d="M1630.6,262.722l-24.411,71.318l-0,0c83.609,30.513 155.876,97.494 197.152,180.205l0,0l69.907,-33.313c-0,-0 0.014,0.03 -0.035,-0.073c-49.05,-102.69 -137.816,-182.333 -242.613,-218.137Z" style="stroke:#fff;stroke-width:4.17px;"/><path id="_27" serif:id="27" d="M1873.24,480.932c-0,-0 -0.012,-0.025 0.013,0.027c26.105,54.689 40.946,115.912 40.946,180.527c-0,64.565 -15.026,125.783 -41.335,180.497l-66.904,-31.883c0,0 0,0 0,0c21.676,-44.358 34.09,-93.508 34.09,-144.471c0,-52.99 -13.421,-104.702 -36.717,-151.384c0,0 0,0 0,0l0,0l69.907,-33.313Z" style="stroke:#fff;stroke-width:4.17px;"/><path id="_28" serif:id="28" d="M1805.96,810.1l0,0c-40.732,83.355 -114.159,149.824 -199.422,179.727l-0.083,0.029l24.1,70.408c103.977,-35.982 192.978,-115.691 242.309,-218.281l-66.904,-31.883Z" style="stroke:#fff;stroke-width:4.17px;"/><path id="_29" serif:id="29" d="M1358.51,1007.01l0,73.925l148.713,-0c42.319,-0 83.843,-7.376 123.219,-21.003l-23.985,-70.072l0,0c0,0 -0.037,0.013 -0.141,0.05c-31.627,11.066 -64.878,17.1 -98.69,17.1l-149.116,0Z" style="stroke:#fff;stroke-width:4.17px;"/><rect id="_30" serif:id="30" x="1182.55" y="1007.01" width="175.961" height="73.924" style="stroke:#fff;stroke-width:4.17px;"/><rect id="_31" serif:id="31" x="1010.47" y="1007.01" width="172.077" height="73.924" style="stroke:#fff;stroke-width:4.17px;"/><rect id="_32" serif:id="32" x="835.261" y="1007.01" width="175.213" height="74.148" style="stroke:#fff;stroke-width:4.17px;"/><rect id="_33" serif:id="33" x="656.225" y="1007.01" width="179.036" height="74.148" style="stroke:#fff;stroke-width:4.17px;"/><path id="_34" serif:id="34" d="M656.225,1081.15l-0,-74.149l-40.33,0c-60.527,0 -118.445,-16.182 -169.817,-44.41c-0.01,-0.006 -0.019,-0.011 -0.029,-0.016l-0.078,-0.043l-23.761,69.415c0,0 -0.011,-0.005 0.013,0.007c60.051,31.548 126.176,49.319 192.987,49.196l41.015,-0Z" style="stroke:#fff;stroke-width:4.17px;"/><path id="_35" serif:id="35" d="M268.129,757.483c-0.002,-0.004 -0,0.001 -0,0.001l-0.015,0.007l-66.422,31.652l0.01,0.026c42.655,105.234 123.689,191.918 220.508,242.784l23.761,-69.416l-0,-0l-0.16,-0.088c-13.894,-7.66 -27.307,-16.18 -40.148,-25.499c-36.681,-26.618 -68.671,-59.638 -94.291,-97.013c-11.678,-17.037 -22.035,-34.981 -30.915,-53.631c-4.492,-9.433 -8.6,-19.046 -12.323,-28.808l-0.005,-0.015Zm-66.437,31.66l-0,0l0,0l-0,-0l-0.005,-0.024c0,-0 -0.021,-0.041 0.005,0.024Z" style="stroke:#fff;stroke-width:4.17px;"/><path id="_36" serif:id="36" d="M273.523,478.548c-0,-0 0.219,-0.517 0.219,-0.517c-22.059,-10.512 -43.898,-21.179 -66.057,-31.479c0,0 -0.001,-0 -0.001,-0c0.003,0 -0.442,0.997 -0.54,1.226c-0.003,0.007 -0.005,0.012 -0.008,0.018c-0.472,1.073 -0.951,2.18 -1.415,3.257c-2.137,4.958 -4.244,10.114 -6.203,15.146c-8.152,20.936 -14.707,42.28 -19.604,64.208c-5.091,22.8 -8.455,46.003 -9.809,69.325c-1.579,27.186 -0.573,54.518 2.993,81.515c3.015,22.817 7.856,45.388 14.417,67.447c2.743,9.222 5.879,18.299 9.211,27.325c1.619,4.387 3.388,8.951 5.139,13.287l66.264,-31.822c-2.332,-6.151 -4.516,-12.356 -6.533,-18.617c-3.995,-12.396 -7.354,-24.997 -10.049,-37.74c-5.472,-25.881 -8.184,-52.341 -8.011,-78.795c0.185,-28.169 3.642,-56.299 10.197,-83.694c3.25,-13.585 7.258,-26.988 11.983,-40.132c2.417,-6.724 5.026,-13.377 7.807,-19.958Z" style="stroke:#fff;stroke-width:4.17px;"/><path id="_37" serif:id="37" d="M388.34,237.177c0,-0 9.605,-6.109 0.272,-0.173l-0.272,0.173c-77.638,49.525 -142.188,122.705 -180.656,209.375l66.058,31.479c30.335,-71.35 81.635,-132.689 145.225,-174.909l-30.627,-65.945Z" style="stroke:#fff;stroke-width:4.17px;"/><path id="_38" serif:id="38" d="M388.34,237.177l59.788,-32.265c0.028,0.057 17.2,34.904 59.489,54.921c-31.378,10.364 -61.161,25.037 -88.651,43.287l-30.626,-65.943Z" style="stroke:#fff;stroke-width:4.17px;"/><path id="_39" serif:id="39" d="M940.435,168.101c0.455,26.87 -2.931,55.347 -17.842,74.148l-306.619,0c-37.42,0 -73.843,6.185 -108.357,17.584c-42.29,-20.016 -59.462,-54.865 -59.489,-54.921c0,0 77.186,-36.811 167.161,-36.811l325.146,-0Z" style="stroke:#fff;stroke-width:4.17px;"/><path id="_40" serif:id="40" d="M940.474,168.101l68.28,-0l-0,74.148l-86.122,0c14.911,-18.801 18.297,-47.278 17.842,-74.148Z" style="stroke:#fff;stroke-width:4.17px;"/><path id="_41" serif:id="41" d="M1182.55,167.893l-173.797,0.208l-0,74.148l173.797,-0.208l0,-74.148Z" style="stroke:#fff;stroke-width:4.17px;"/><rect id="_42" serif:id="42" x="1182.55" y="167.893" width="175.961" height="74.148" style="stroke:#fff;stroke-width:4.17px;"/><path id="_43" serif:id="43" d="M1358.51,167.893l0,74.148l148.713,0c42.797,0 84.313,7.241 123.415,20.553l23.928,-69.905c-47.115,-16.087 -97.119,-24.796 -148.554,-24.796l-147.502,-0Z" style="stroke:#fff;stroke-width:4.17px;"/><path id="_44" serif:id="44" d="M1654.57,192.689l-23.928,69.905c105.737,36 193.96,116.386 242.675,218.246c0.044,0.092 0.022,0.047 0.022,0.047l66.86,-31.861c-57.463,-120.417 -161.534,-213.967 -285.629,-256.337Z" style="stroke:#fff;stroke-width:4.17px;"/><path id="_45" serif:id="45" d="M1940.2,449.026l-66.86,31.861c0,0 -0.008,-0.017 0.011,0.022c26.108,54.616 40.859,115.404 40.859,178.831c-0,64.337 -15.177,126.262 -41.998,181.929l69,32.881c30.214,-64.449 47.146,-136.658 47.146,-212.88c0,-76.086 -17.406,-148.201 -48.158,-212.644Z" style="stroke:#fff;stroke-width:4.17px;"/><path id="_46" serif:id="46" d="M1872.21,841.669c-48.923,101.543 -136.604,182.214 -241.516,218.549c-0.141,0.049 -0.134,0.046 -0.134,0.046l24.252,70.851c126.211,-41.883 229.689,-135.596 286.398,-256.565l-69,-32.881Z" style="stroke:#fff;stroke-width:4.17px;"/><path id="_47" serif:id="47" d="M1358.51,1081.16l0,73.923l147.502,0c51.911,0 101.918,-8.407 148.797,-23.964l-24.252,-70.851c0,0 0.019,-0.006 -0.065,0.023c-39.073,13.509 -80.533,20.869 -123.269,20.869l-148.713,-0Z" style="stroke:#fff;stroke-width:4.17px;"/><rect id="_48" serif:id="48" x="1182.55" y="1081.16" width="175.961" height="73.924" style="stroke:#fff;stroke-width:4.17px;"/><path id="_49" serif:id="49" d="M1182.55,1081.16l-172.077,-0l0.001,74.147l172.076,-0.224l0,-73.923Z" style="stroke:#fff;stroke-width:4.17px;"/><rect id="_50" serif:id="50" x="835.261" y="1081.15" width="175.213" height="74.148" style="stroke:#fff;stroke-width:4.17px;"/><rect id="_51" serif:id="51" x="656.225" y="1081.15" width="179.036" height="74.148" style="stroke:#fff;stroke-width:4.17px;"/><path id="_52" serif:id="52" d="M656.225,1155.3l-0,-74.148l-35.678,-0c-70.394,-0 -137.898,-17.963 -198.272,-49.391l-24.972,72.956c67.572,32.389 143.014,50.583 222.567,50.583l36.355,0Z" style="stroke:#fff;stroke-width:4.17px;"/><path id="_53" serif:id="53" d="M397.303,1104.72l24.972,-72.956c-0,0 -0.01,-0.004 -0.045,-0.023c-98.752,-51.419 -178.42,-138.865 -220.444,-242.642l-68.611,32.695c0,0 -0.045,-0.112 0.079,0.197c49.712,123.897 144.61,225.481 264.049,282.729Z" style="stroke:#fff;stroke-width:4.17px;"/><path id="_54" serif:id="54" d="M138.954,413.911c0.056,-0.129 0.04,-0.093 0.04,-0.093l68.69,32.734l-0.007,0.016c-1.297,2.933 -2.565,5.879 -3.802,8.838c-2.233,5.338 -4.368,10.717 -6.397,16.136c-6.081,16.243 -11.234,32.834 -15.396,49.672c-4.189,16.947 -7.373,34.143 -9.503,51.47c-2.124,17.287 -3.199,34.703 -3.199,52.12c-0,16.247 0.935,32.493 2.785,48.634c1.832,15.969 4.559,31.834 8.145,47.502c3.511,15.341 7.846,30.493 12.958,45.377c2.623,7.638 5.457,15.203 8.477,22.693l0.12,0.296l-68.611,32.696c0,0 -0.023,-0.055 -0.287,-0.719c-24.338,-60.984 -37.736,-127.351 -37.736,-196.481c0,-74.605 15.604,-146.001 43.723,-210.891Z" style="stroke:#fff;stroke-width:4.17px;"/><path id="_55" serif:id="55" d="M138.994,413.818l68.69,32.734c37.998,-85.756 101.85,-159.426 180.638,-209.414l-32.611,-70.218c-95.601,56.998 -171.978,143.715 -216.717,246.898Z" style="stroke:#fff;stroke-width:4.17px;"/><path id="_56" serif:id="56" d="M421.027,133.74c-22.851,9.546 -44.21,20.597 -65.316,33.18l32.612,70.22c0,0 59.821,-32.197 59.805,-32.228l-27.101,-71.172Z" style="stroke:#fff;stroke-width:4.17px;"/><path id="_57" serif:id="57" d="M484.117,112.074l15.748,73.865c-17.872,5.33 -34.757,11.459 -51.736,18.975c-0.056,-0.109 0,0 0,0l-27.097,-71.161c-0,-0 23.803,-11.193 63.085,-21.679Z" style="stroke:#fff;stroke-width:4.17px;"/><path id="_58" serif:id="58" d="M552.406,134.364l2.676,38.835c-18.767,2.963 -37.176,7.36 -55.217,12.74l-8.341,-39.094c-0,-0 36.849,-9.418 60.667,-12.454l0.215,-0.027Z" style="stroke:#fff;stroke-width:4.17px;"/><path id="_59" serif:id="59" d="M619.668,131.181l-0,36.92c-21.842,0.015 -43.429,1.758 -64.586,5.098l-2.676,-38.835c23.224,-2.93 64.714,-3.164 67.262,-3.183Z" style="stroke:#fff;stroke-width:4.17px;"/><path id="_60" serif:id="60" d="M688.631,131.027l0,37.074l-68.963,-0l-0,-36.833l68.963,-0.241Z" style="stroke:#fff;stroke-width:4.17px;"/><rect id="_61" serif:id="61" x="688.631" y="131.027" width="64.681" height="37.074" style="stroke:#fff;stroke-width:4.17px;"/><rect id="_62" serif:id="62" x="753.312" y="131.026" width="61.24" height="37.074" style="stroke:#fff;stroke-width:4.17px;"/><rect id="_63" serif:id="63" x="814.552" y="131.027" width="64.681" height="37.074" style="stroke:#fff;stroke-width:4.17px;"/><rect id="_64" serif:id="64" x="879.234" y="131.026" width="61.24" height="37.074" style="stroke:#fff;stroke-width:4.17px;"/><path id="_65" serif:id="65" d="M552.406,134.364l-0.215,0.027c-23.818,3.036 -60.667,12.454 -60.667,12.454l-7.407,-34.771c18.731,-4.999 40.992,-9.806 65.859,-13.219l2.43,35.509Z" style="stroke:#fff;stroke-width:4.17px;"/><path id="_66" serif:id="66" d="M619.668,131.268c-2.548,0.019 -44.038,0.166 -67.262,3.096l-2.43,-35.509c21.36,-2.932 45.047,-4.649 69.692,-4.649l-0,37.062Z" style="stroke:#fff;stroke-width:4.17px;"/><path id="_67" serif:id="67" d="M688.631,131.027l-68.963,0.241l-0,-37.074l68.963,-0.242l0,37.075Z" style="stroke:#fff;stroke-width:4.17px;"/><rect id="_68" serif:id="68" x="688.631" y="93.952" width="64.681" height="37.074" style="stroke:#fff;stroke-width:4.17px;"/><rect id="_69" serif:id="69" x="753.312" y="93.952" width="61.24" height="37.074" style="stroke:#fff;stroke-width:4.17px;"/><rect id="_70" serif:id="70" x="814.552" y="93.952" width="64.681" height="37.074" style="stroke:#fff;stroke-width:4.17px;"/><rect id="_71" serif:id="71" x="879.234" y="93.952" width="61.24" height="37.074" style="stroke:#fff;stroke-width:4.17px;"/><rect id="_72" serif:id="72" x="940.474" y="93.952" width="68.28" height="74.148" style="stroke:#fff;stroke-width:4.17px;"/><path id="_73" serif:id="73" d="M1182.55,93.744l-173.797,0.208l-0,74.149l173.797,-0.208l0,-74.149Z" style="stroke:#fff;stroke-width:4.17px;"/><rect id="_74" serif:id="74" x="1182.55" y="93.744" width="175.961" height="74.148" style="stroke:#fff;stroke-width:4.17px;"/><path id="_75" serif:id="75" d="M1358.51,93.744l0,74.149l147.501,-0c51.836,-0 101.773,8.658 148.585,24.579c0.026,0.009 0.039,0.014 0.039,0.014l25.053,-73.192l-0,-0.001c-52.171,-16.605 -108.006,-25.549 -166.45,-25.549l-154.728,0Z" style="stroke:#fff;stroke-width:4.17px;"/><path id="_76" serif:id="76" d="M1679.69,119.293l-0,0.001l-25.053,73.192c0,-0 -0.006,-0.003 0.015,0.004c125.154,42.582 227.967,137.075 285.005,256.793l70.237,-33.471c-64.085,-140.818 -182.337,-249.453 -330.204,-296.519Z" style="stroke:#fff;stroke-width:4.17px;"/><path id="_77" serif:id="77" d="M2009.89,415.812l-70.237,33.471c31.192,65.468 48.698,138.461 48.698,214.637c0,74.959 -16.952,146.474 -47.211,210.599l68.842,32.806c33.802,-74.341 52.514,-157.675 52.514,-245.655c0,-88.047 -18.74,-171.441 -52.606,-245.858Z" style="stroke:#fff;stroke-width:4.17px;"/><path id="_78" serif:id="78" d="M1941.14,874.519c-56.708,120.178 -160.161,214.381 -286.334,256.593l24.956,72.911c147.905,-47.112 266.154,-155.8 330.22,-296.698l-68.842,-32.806Z" style="stroke:#fff;stroke-width:4.17px;"/><path id="_79" serif:id="79" d="M1358.51,1155.3l0,74.294l154.728,-0c58.485,-0 114.357,-8.956 166.526,-25.574l-24.956,-72.911c-46.879,15.684 -96.886,24.191 -148.797,24.191l-147.501,0Z" style="stroke:#fff;stroke-width:4.17px;"/><rect id="_80" serif:id="80" x="1182.55" y="1155.3" width="175.961" height="74.293" style="stroke:#fff;stroke-width:4.17px;"/><path id="_81" serif:id="81" d="M1182.55,1155.3l-172.076,-0.144l0,74.293l172.076,0.145l0,-74.294Z" style="stroke:#fff;stroke-width:4.17px;"/><rect id="_82" serif:id="82" x="835.261" y="1155.3" width="175.214" height="74.148" style="stroke:#fff;stroke-width:4.17px;"/><rect id="_83" serif:id="83" x="656.225" y="1155.3" width="179.036" height="74.148" style="stroke:#fff;stroke-width:4.17px;"/><path id="_84" serif:id="84" d="M656.225,1229.45l-0,-74.149l-36.355,0c-79.524,0 -154.958,-18.18 -222.574,-50.564l-23.022,67.258c78.964,36.845 166.845,57.455 258.937,57.455l23.014,-0Z" style="stroke:#fff;stroke-width:4.17px;"/><path id="_85" serif:id="85" d="M374.274,1172c0,-0 0.002,0.001 -0.015,-0.007c-137.96,-64.369 -248.789,-178.296 -307.538,-318.529l66.275,-31.582c-0,-0 0.065,0.163 0.158,0.394c49.793,123.783 144.729,225.265 264.142,282.466l-23.022,67.257l0,0.001Z" style="stroke:#fff;stroke-width:4.17px;"/><path id="_86" serif:id="86" d="M138.811,413.763l0.011,-0.027l-66.091,-31.495c-33.313,74.257 -51.898,156.314 -51.898,242.563c0,80.973 16.381,158.243 45.968,228.866l66.274,-31.582l-0.154,-0.383c-1.596,-3.995 -3.15,-8.007 -4.652,-12.039c-3.107,-8.341 -6.005,-16.761 -8.688,-25.249c-7.061,-22.331 -12.638,-45.132 -16.676,-68.202c-7.314,-41.791 -9.567,-84.457 -6.748,-126.788c1.333,-20.014 3.803,-39.952 7.4,-59.686c4.608,-25.285 11.067,-50.231 19.299,-74.578c3.191,-9.438 6.649,-18.786 10.365,-28.029c1.803,-4.482 3.669,-8.938 5.59,-13.371Z" style="stroke:#fff;stroke-width:4.17px;"/><path id="_87" serif:id="87" d="M72.731,382.241c92.099,-193.221 253,-279.867 253,-279.867l29.966,64.516c-95.642,56.976 -172.086,143.678 -216.875,246.846l-66.091,-31.495Z" style="stroke:#fff;stroke-width:4.17px;"/><path id="_88" serif:id="88" d="M325.731,102.374l29.965,64.515c21.113,-12.578 42.482,-23.61 65.331,-33.149l-24.622,-66.413c-24.573,10.284 -47.793,21.785 -70.674,35.047Z" style="stroke:#fff;stroke-width:4.17px;"/><path id="_89" serif:id="89" d="M469.198,42.108c-24.903,6.906 -49.21,15.35 -72.793,25.219l24.622,66.413c20.422,-8.526 41.483,-15.781 63.09,-21.666l-14.919,-69.966Z" style="stroke:#fff;stroke-width:4.17px;"/><path id="_90" serif:id="90" d="M547.381,61.23c-23.817,3.036 -70.73,15.832 -70.73,15.832l7.466,35.012c21.446,-5.84 43.439,-10.183 65.859,-13.219l-2.595,-37.625Z" style="stroke:#fff;stroke-width:4.17px;"/><path id="_91" serif:id="91" d="M619.668,57.119c-2.707,0.069 -49.07,1.152 -72.287,4.111l0,0l2.595,37.625c22.685,-3.072 46.203,-4.662 69.692,-4.662c-0,0 -0,-37.074 -0,-37.074Z" style="stroke:#fff;stroke-width:4.17px;"/><path id="_92" serif:id="92" d="M688.631,56.878l-68.963,0.254l-0,37.074l68.963,-0.254l0,-37.074Z" style="stroke:#fff;stroke-width:4.17px;"/><rect id="_93" serif:id="93" x="688.631" y="56.878" width="64.681" height="37.074" style="stroke:#fff;stroke-width:4.17px;"/><rect id="_94" serif:id="94" x="753.312" y="56.878" width="61.24" height="37.074" style="stroke:#fff;stroke-width:4.17px;"/><rect id="_95" serif:id="95" x="814.552" y="56.878" width="64.681" height="37.074" style="stroke:#fff;stroke-width:4.17px;"/><rect id="_96" serif:id="96" x="879.234" y="56.878" width="61.24" height="37.074" style="stroke:#fff;stroke-width:4.17px;"/><path id="_97" serif:id="97" d="M476.651,77.062l-7.453,-34.954c25.052,-6.947 49.613,-12.176 75.768,-15.908l2.415,35.03c-23.817,3.036 -70.73,15.832 -70.73,15.832Z" style="stroke:#fff;stroke-width:4.17px;"/><path id="_98" serif:id="98" d="M619.679,57.119c-2.706,0.069 -49.081,1.152 -72.298,4.111l0,0l-2.415,-35.03c24.504,-3.542 49.442,-5.625 74.713,-6.155l0,37.074Z" style="stroke:#fff;stroke-width:4.17px;"/><path id="_99" serif:id="99" d="M688.631,56.878l0,-37.074l-68.963,0.241l-0,37.074l68.963,-0.241Z" style="stroke:#fff;stroke-width:4.17px;"/><rect id="_100" serif:id="100" x="688.631" y="19.804" width="64.681" height="37.074" style="stroke:#fff;stroke-width:4.17px;"/><rect id="_101" serif:id="101" x="753.312" y="19.804" width="61.24" height="37.074" style="stroke:#fff;stroke-width:4.17px;"/><rect id="_102" serif:id="102" x="814.552" y="19.804" width="64.681" height="37.074" style="stroke:#fff;stroke-width:4.17px;"/><rect id="_103" serif:id="103" x="879.234" y="19.804" width="61.24" height="37.074" style="stroke:#fff;stroke-width:4.17px;"/><rect id="_104" serif:id="104" x="940.474" y="19.804" width="68.28" height="74.148" style="stroke:#fff;stroke-width:4.17px;"/></g></svg>